<?xml version="1.0" encoding="utf-8"?>
<!-- Generator: Adobe Illustrator 16.0.2, SVG Export Plug-In . SVG Version: 6.00 Build 0)  -->
<!DOCTYPE svg PUBLIC "-//W3C//DTD SVG 1.1//EN" "http://www.w3.org/Graphics/SVG/1.1/DTD/svg11.dtd">
<svg version="1.1" id="Layer_1" xmlns="http://www.w3.org/2000/svg" xmlns:xlink="http://www.w3.org/1999/xlink" x="0px" y="0px"
	 width="141.391px" height="68.063px" viewBox="0 0 141.391 68.063" enable-background="new 0 0 141.391 68.063"
	 xml:space="preserve">
<g>
	<path fill-rule="evenodd" clip-rule="evenodd" fill="#3DCD99" d="M25.879,0.309c14.077,0,25.488,11.412,25.488,25.488
		c0,14.075-11.411,25.488-25.488,25.488c-14.075,0-25.488-11.413-25.488-25.488C0.391,11.721,11.804,0.309,25.879,0.309
		L25.879,0.309z"/>
	<path fill-rule="evenodd" clip-rule="evenodd" fill="#555555" d="M72.19,24.412h-2.927v-1.789
		c-0.458,0.385-0.851,0.706-1.187,0.957c-0.33,0.252-0.718,0.482-1.164,0.691c-0.413,0.2-0.844,0.354-1.292,0.462
		c-0.445,0.112-0.966,0.165-1.556,0.165c-0.946,0-1.823-0.197-2.625-0.594c-0.804-0.401-1.489-0.98-2.049-1.746
		c-0.574-0.771-1.015-1.723-1.322-2.858c-0.313-1.137-0.468-2.443-0.468-3.917c0-1.536,0.197-2.869,0.59-3.994
		c0.398-1.125,0.939-2.104,1.638-2.94c0.633-0.765,1.397-1.359,2.295-1.794c0.899-0.434,1.839-0.653,2.828-0.653
		c0.873,0,1.626,0.098,2.271,0.291c0.643,0.191,1.323,0.493,2.041,0.903V0h2.927V24.412L72.19,24.412z M69.263,20.144V10.044
		c-0.729-0.358-1.377-0.604-1.956-0.739c-0.574-0.134-1.202-0.203-1.877-0.203c-1.504,0-2.684,0.565-3.534,1.703
		c-0.851,1.135-1.276,2.773-1.276,4.916c0,2.061,0.33,3.642,0.983,4.734c0.655,1.09,1.701,1.638,3.141,1.638
		c0.771,0,1.542-0.175,2.324-0.525C67.843,21.216,68.577,20.744,69.263,20.144L69.263,20.144z M83.977,24.817
		c-2.771,0-4.924-0.785-6.453-2.36c-1.53-1.575-2.295-3.807-2.295-6.704c0-2.854,0.74-5.129,2.226-6.817
		c1.481-1.685,3.422-2.533,5.827-2.533c1.078,0,2.03,0.155,2.864,0.472c0.83,0.312,1.555,0.804,2.177,1.473
		c0.623,0.669,1.103,1.487,1.433,2.458c0.333,0.964,0.496,2.152,0.496,3.55v1.601H78.203c0,2.039,0.508,3.599,1.525,4.673
		c1.014,1.076,2.425,1.62,4.22,1.62c0.643-0.002,1.27-0.075,1.888-0.22c0.619-0.146,1.176-0.338,1.673-0.568
		c0.533-0.242,0.98-0.472,1.343-0.696c0.357-0.226,0.663-0.439,0.903-0.639h0.167v3.219c-0.338,0.134-0.766,0.305-1.274,0.508
		c-0.513,0.204-0.968,0.364-1.371,0.476c-0.569,0.157-1.086,0.279-1.546,0.364C85.267,24.776,84.681,24.819,83.977,24.817
		L83.977,24.817z M87.402,13.696c-0.02-0.792-0.109-1.477-0.28-2.055c-0.163-0.574-0.403-1.062-0.712-1.457
		c-0.346-0.439-0.781-0.777-1.318-1.009c-0.537-0.23-1.196-0.342-1.981-0.342c-0.781,0-1.44,0.118-1.99,0.354
		c-0.541,0.236-1.042,0.578-1.485,1.027c-0.439,0.459-0.769,0.97-0.997,1.526c-0.228,0.563-0.37,1.21-0.435,1.955H87.402
		L87.402,13.696z M106.885,24.412h-2.93v-9.978c0-0.808-0.036-1.558-0.117-2.254c-0.078-0.696-0.225-1.253-0.439-1.67
		c-0.24-0.439-0.574-0.765-1.001-0.98c-0.424-0.214-1.01-0.322-1.742-0.322c-0.729,0-1.477,0.2-2.254,0.59
		c-0.773,0.391-1.526,0.899-2.267,1.532v13.082h-2.926V6.889h2.926v1.945c0.875-0.781,1.733-1.388,2.584-1.805
		c0.858-0.417,1.754-0.627,2.697-0.627c1.714,0,3.057,0.568,4.017,1.703c0.969,1.135,1.452,2.779,1.452,4.932V24.412L106.885,24.412
		z M116.261,24.754c-1.6,0-2.845-0.454-3.735-1.369c-0.896-0.917-1.344-2.362-1.344-4.34V9.336h-1.973V6.889h1.973V1.855h2.931
		v5.033h5.383v2.448h-5.383v8.329c0,0.887,0.016,1.573,0.049,2.057c0.032,0.48,0.15,0.93,0.357,1.347
		c0.175,0.364,0.46,0.643,0.854,0.826c0.391,0.181,0.932,0.272,1.604,0.272c0.476,0,0.936-0.069,1.384-0.208
		c0.447-0.146,0.769-0.263,0.968-0.356h0.167v2.647c-0.545,0.161-1.103,0.285-1.672,0.37
		C117.262,24.711,116.74,24.754,116.261,24.754L116.261,24.754z M132.292,20.095v-4.867c-0.699,0.063-1.574,0.151-2.641,0.256
		c-1.066,0.112-1.921,0.269-2.575,0.466c-0.781,0.24-1.425,0.61-1.929,1.108c-0.513,0.493-0.766,1.19-0.766,2.078
		c0,1.007,0.281,1.768,0.839,2.276c0.562,0.513,1.383,0.771,2.461,0.771c0.924,0,1.758-0.203,2.507-0.606
		C130.934,21.177,131.637,20.685,132.292,20.095L132.292,20.095z M132.292,22.548c-0.24,0.177-0.562,0.423-0.96,0.745
		c-0.398,0.315-0.785,0.574-1.16,0.759c-0.521,0.273-1.017,0.484-1.501,0.627c-0.484,0.145-1.16,0.22-2.03,0.22
		c-0.721,0-1.4-0.134-2.043-0.407c-0.643-0.272-1.204-0.653-1.696-1.145c-0.464-0.482-0.839-1.077-1.119-1.785
		c-0.281-0.706-0.419-1.451-0.419-2.232c0-1.216,0.252-2.25,0.765-3.101c0.505-0.856,1.314-1.532,2.409-2.036
		c0.977-0.448,2.128-0.759,3.458-0.93c1.327-0.173,2.759-0.299,4.297-0.386v-0.562c0-0.692-0.109-1.247-0.317-1.677
		c-0.203-0.423-0.492-0.75-0.87-0.98c-0.371-0.24-0.83-0.395-1.367-0.476c-0.542-0.079-1.095-0.118-1.66-0.118
		c-0.676,0-1.474,0.102-2.385,0.308c-0.911,0.201-1.827,0.502-2.742,0.887h-0.167V7.259c0.541-0.155,1.31-0.326,2.315-0.513
		c1.009-0.189,2.002-0.285,2.994-0.285c1.188,0,2.197,0.096,3.02,0.285c0.813,0.187,1.555,0.525,2.209,1.017
		c0.631,0.48,1.107,1.103,1.412,1.868c0.313,0.761,0.468,1.693,0.468,2.792v11.989h-2.909V22.548L132.292,22.548z M141.391,24.412
		h-2.93V0h2.93V24.412L141.391,24.412z"/>
	<path fill-rule="evenodd" clip-rule="evenodd" fill="#555555" d="M62.626,49.548c-1.013,0-1.955-0.139-2.84-0.419
		c-0.877-0.276-1.607-0.569-2.185-0.887v-2.922h0.132c0.218,0.175,0.472,0.37,0.769,0.582c0.291,0.211,0.684,0.436,1.17,0.667
		c0.433,0.203,0.909,0.383,1.428,0.537c0.523,0.154,1.058,0.236,1.622,0.236c0.407,0,0.838-0.045,1.3-0.146
		c0.462-0.094,0.806-0.216,1.032-0.366c0.313-0.212,0.539-0.436,0.684-0.676c0.138-0.244,0.208-0.603,0.208-1.086
		c0-0.619-0.165-1.087-0.495-1.396c-0.328-0.321-0.911-0.577-1.751-0.789c-0.324-0.09-0.749-0.183-1.271-0.293
		c-0.527-0.105-1.007-0.228-1.453-0.358c-1.154-0.337-1.996-0.87-2.519-1.582c-0.521-0.721-0.785-1.583-0.785-2.601
		c0-1.396,0.513-2.531,1.544-3.41c1.032-0.875,2.399-1.314,4.106-1.314c0.84,0,1.68,0.104,2.533,0.317
		c0.851,0.211,1.563,0.48,2.141,0.804v2.783h-0.134c-0.653-0.522-1.377-0.939-2.177-1.24c-0.797-0.31-1.603-0.46-2.419-0.46
		c-0.836,0-1.544,0.179-2.122,0.539c-0.578,0.358-0.869,0.907-0.869,1.636c0,0.646,0.171,1.131,0.515,1.448
		c0.34,0.313,0.891,0.578,1.65,0.781c0.378,0.102,0.804,0.199,1.266,0.297c0.468,0.098,0.958,0.212,1.471,0.338
		c1.123,0.289,1.963,0.766,2.529,1.429c0.563,0.667,0.844,1.57,0.844,2.714c0,0.667-0.128,1.294-0.387,1.892
		c-0.256,0.595-0.635,1.107-1.129,1.53c-0.539,0.464-1.156,0.813-1.835,1.058C64.512,49.43,63.656,49.548,62.626,49.548
		L62.626,49.548z M77.482,49.532c-2.409,0-4.28-0.695-5.611-2.083c-1.331-1.392-1.996-3.361-1.996-5.92
		c0-2.52,0.647-4.529,1.937-6.019c1.288-1.491,2.977-2.238,5.068-2.238c0.937,0,1.767,0.138,2.49,0.417
		c0.721,0.275,1.355,0.71,1.896,1.3c0.541,0.59,0.956,1.314,1.241,2.171c0.293,0.853,0.436,1.902,0.436,3.135v1.412H72.461
		c0,1.803,0.448,3.178,1.331,4.13c0.883,0.948,2.107,1.424,3.67,1.424c0.558,0,1.103-0.064,1.64-0.19
		c0.537-0.127,1.021-0.298,1.457-0.501c0.464-0.212,0.851-0.415,1.164-0.614c0.317-0.199,0.577-0.391,0.785-0.565h0.15v2.844
		c-0.297,0.118-0.667,0.269-1.11,0.448c-0.444,0.179-0.843,0.321-1.192,0.419c-0.492,0.138-0.944,0.248-1.347,0.325
		C78.609,49.496,78.101,49.532,77.482,49.532L77.482,49.532z M80.465,39.713c-0.016-0.699-0.098-1.306-0.244-1.814
		c-0.143-0.507-0.35-0.938-0.618-1.288c-0.301-0.387-0.68-0.686-1.147-0.887c-0.468-0.206-1.042-0.306-1.726-0.306
		c-0.68,0-1.253,0.106-1.729,0.313c-0.472,0.208-0.903,0.511-1.294,0.907c-0.378,0.407-0.663,0.856-0.862,1.35
		c-0.199,0.496-0.325,1.065-0.383,1.725H80.465L80.465,39.713z M93.535,36.497H93.4c-0.188-0.057-0.391-0.089-0.606-0.104
		c-0.211-0.014-0.464-0.018-0.761-0.018c-0.688,0-1.367,0.15-2.051,0.457c-0.671,0.304-1.314,0.757-1.921,1.359v10.982h-2.547
		V33.704h2.547V36c0.928-0.836,1.742-1.432,2.434-1.776c0.691-0.346,1.363-0.521,2.01-0.521c0.265,0,0.456,0.004,0.591,0.019
		c0.13,0.014,0.276,0.039,0.439,0.067V36.497L93.535,36.497z M108.899,33.704l-5.701,15.471h-2.29l-5.656-15.471h2.751l4.142,11.918
		l4.102-11.918H108.899L108.899,33.704z M113.123,49.174h-2.543V33.704h2.543V49.174L113.123,49.174z M113.302,31.107H110.4v-2.7
		h2.901V31.107L113.302,31.107z M122.575,49.52c-1.033,0-1.989-0.167-2.856-0.492c-0.862-0.326-1.611-0.822-2.233-1.489
		c-0.623-0.668-1.107-1.506-1.453-2.515c-0.342-1.014-0.513-2.201-0.513-3.564c0-1.359,0.18-2.531,0.537-3.52
		c0.358-0.989,0.83-1.819,1.429-2.497c0.598-0.671,1.334-1.19,2.229-1.554c0.887-0.364,1.844-0.549,2.86-0.549
		c0.83,0,1.632,0.118,2.405,0.36c0.769,0.24,1.461,0.519,2.063,0.832v2.922h-0.146c-0.179-0.157-0.415-0.336-0.695-0.539
		c-0.289-0.204-0.631-0.411-1.038-0.625c-0.35-0.186-0.769-0.344-1.249-0.482c-0.476-0.138-0.936-0.207-1.379-0.207
		c-1.318,0-2.377,0.511-3.179,1.531c-0.797,1.016-1.196,2.46-1.196,4.328c0,1.822,0.387,3.251,1.16,4.269
		c0.773,1.021,1.839,1.529,3.215,1.529c0.83,0,1.619-0.175,2.368-0.524c0.752-0.351,1.416-0.802,1.993-1.355h0.146v2.922
		c-0.252,0.122-0.565,0.265-0.943,0.436c-0.379,0.175-0.725,0.297-1.034,0.382c-0.427,0.127-0.817,0.229-1.163,0.298
		C123.561,49.488,123.116,49.52,122.575,49.52L122.575,49.52z M135.93,49.532c-2.408,0-4.28-0.695-5.611-2.083
		c-1.33-1.392-1.997-3.361-1.997-5.92c0-2.52,0.646-4.529,1.937-6.019c1.29-1.491,2.979-2.238,5.065-2.238
		c0.94,0,1.767,0.138,2.495,0.417c0.72,0.275,1.354,0.71,1.896,1.3c0.541,0.59,0.956,1.314,1.241,2.171
		c0.293,0.853,0.436,1.902,0.436,3.135v1.412h-10.481c0,1.803,0.443,3.178,1.326,4.13c0.883,0.948,2.107,1.424,3.67,1.424
		c0.562,0,1.107-0.064,1.645-0.19c0.537-0.127,1.021-0.298,1.456-0.501c0.46-0.212,0.851-0.415,1.164-0.614s0.578-0.391,0.785-0.565
		h0.15v2.844c-0.297,0.118-0.667,0.269-1.11,0.448c-0.443,0.179-0.843,0.321-1.192,0.419c-0.496,0.138-0.944,0.248-1.347,0.325
		C137.053,49.496,136.544,49.532,135.93,49.532L135.93,49.532z M138.912,39.713c-0.02-0.699-0.098-1.306-0.244-1.814
		c-0.142-0.507-0.35-0.938-0.618-1.288c-0.301-0.387-0.68-0.686-1.147-0.887c-0.468-0.206-1.042-0.306-1.726-0.306
		c-0.679,0-1.253,0.106-1.729,0.313c-0.473,0.208-0.908,0.511-1.294,0.907c-0.379,0.407-0.668,0.856-0.867,1.35
		c-0.195,0.496-0.321,1.065-0.378,1.725H138.912L138.912,39.713z"/>
	<path fill-rule="evenodd" clip-rule="evenodd" fill="#FEFEFE" d="M11.41,45.251c0.594-0.143,1.167-0.346,1.721-0.61
		c0.594-0.28,1.109-0.586,1.548-0.92c0.445-0.337,0.97-0.765,1.579-1.277v3.031h3.898V12.321h-3.898v10.118
		c-0.956-0.549-1.862-0.948-2.718-1.205c-0.856-0.256-1.859-0.384-3.021-0.384c-1.316,0-2.57,0.291-3.766,0.871
		c-1.194,0.576-2.213,1.37-3.056,2.389c-0.928,1.111-1.65,2.415-2.179,3.913c-0.301,0.862-0.515,1.821-0.643,2.866
		C1.632,36.5,4.209,41.533,8.002,45.37c0.433,0.069,0.876,0.105,1.334,0.105C10.122,45.475,10.815,45.402,11.41,45.251L11.41,45.251
		z M34.017,31.763c-0.797-0.195-1.561-0.368-2.287-0.513c-0.72-0.152-1.382-0.305-1.972-0.458c-1.18-0.312-2.037-0.718-2.567-1.203
		c-0.533-0.486-0.8-1.225-0.8-2.218c0-1.117,0.454-1.957,1.353-2.506c0.899-0.553,2-0.828,3.302-0.828
		c1.265,0,2.522,0.232,3.762,0.704c1.243,0.464,2.374,1.101,3.387,1.906l0.208-0.002v-4.267c-0.897-0.494-2.006-0.907-3.331-1.233
		c-1.322-0.328-2.632-0.484-3.94-0.484c-2.653,0-4.783,0.671-6.389,2.014c-1.603,1.347-2.401,3.086-2.401,5.225
		c0,1.556,0.409,2.883,1.221,3.985c0.816,1.093,2.125,1.907,3.921,2.427c0.691,0.195,1.438,0.385,2.26,0.549
		c0.812,0.168,1.473,0.313,1.978,0.444c1.31,0.325,2.215,0.724,2.726,1.21c0.511,0.479,0.769,1.194,0.769,2.143
		c0,0.74-0.108,1.294-0.323,1.66c-0.224,0.37-0.576,0.721-1.064,1.038c-0.354,0.231-0.885,0.419-1.604,0.565
		c-0.72,0.15-1.387,0.224-2.022,0.224c-0.877,0-1.711-0.122-2.525-0.362c-0.806-0.24-1.546-0.513-2.224-0.826
		c-0.753-0.354-1.365-0.695-1.819-1.021c-0.459-0.325-0.854-0.622-1.194-0.891h-0.208v4.479c0.899,0.484,2.034,0.933,3.401,1.359
		c1.375,0.432,2.842,0.639,4.417,0.639c1.604,0,2.934-0.179,4-0.549c1.056-0.37,2.014-0.907,2.854-1.615
		c0.769-0.655,1.359-1.437,1.756-2.349c0.403-0.915,0.604-1.88,0.604-2.9c0-1.754-0.439-3.138-1.316-4.159
		C37.073,32.937,35.765,32.206,34.017,31.763L34.017,31.763z M11.155,24.442c-2.004,0-3.573,0.755-4.706,2.267
		c-1.133,1.512-1.699,3.693-1.699,6.545c0,2.745,0.439,4.848,1.308,6.301c0.871,1.456,2.267,2.185,4.183,2.185
		c1.027,0,2.053-0.235,3.092-0.699c1.034-0.473,2.01-1.099,2.924-1.896V25.696c-0.971-0.476-1.833-0.806-2.604-0.982
		C12.889,24.536,12.055,24.442,11.155,24.442L11.155,24.442z"/>
	<path fill-rule="evenodd" clip-rule="evenodd" fill="#A7E5C4" d="M25.879,51.286c-14.077,0-25.488-11.409-25.488-25.488
		c0-3.959,0.903-7.708,2.513-11.051c-1.611,3.343-2.513,7.092-2.513,11.051C0.391,39.876,11.802,51.286,25.879,51.286
		c7.918,0,14.995-3.609,19.67-9.277C40.874,47.676,33.797,51.286,25.879,51.286L25.879,51.286z"/>
	<path fill-rule="evenodd" clip-rule="evenodd" fill="#555555" d="M21.596,62.899c0-0.301-0.03-0.573-0.093-0.81
		c-0.061-0.24-0.155-0.443-0.279-0.614c-0.124-0.167-0.277-0.297-0.458-0.391c-0.181-0.09-0.389-0.135-0.626-0.135
		c-0.169,0-0.326,0.024-0.466,0.069c-0.139,0.049-0.265,0.105-0.38,0.179c-0.112,0.073-0.212,0.151-0.293,0.236
		c-0.082,0.081-0.145,0.154-0.195,0.22v2.706c0.173,0.183,0.372,0.325,0.592,0.436c0.222,0.102,0.462,0.158,0.716,0.158
		c0.154,0,0.321-0.028,0.496-0.089c0.171-0.062,0.332-0.167,0.479-0.322c0.146-0.154,0.271-0.366,0.364-0.63
		C21.55,63.648,21.596,63.31,21.596,62.899L21.596,62.899z M22.453,62.887c0,0.357-0.035,0.675-0.104,0.956
		c-0.067,0.276-0.161,0.517-0.275,0.724c-0.112,0.208-0.244,0.379-0.396,0.521c-0.152,0.138-0.309,0.252-0.474,0.338
		c-0.161,0.085-0.328,0.146-0.494,0.183c-0.169,0.041-0.328,0.057-0.476,0.057c-0.308,0-0.576-0.053-0.802-0.154
		c-0.226-0.102-0.431-0.256-0.61-0.46h-0.016v3.012h-0.808V60.36h0.619l0.173,0.586h0.019c0.047-0.073,0.104-0.143,0.177-0.212
		c0.071-0.068,0.169-0.142,0.289-0.22c0.124-0.077,0.271-0.142,0.439-0.203c0.173-0.057,0.358-0.085,0.56-0.085
		c0.283,0,0.555,0.049,0.818,0.146c0.262,0.098,0.496,0.256,0.696,0.468c0.201,0.216,0.362,0.488,0.484,0.821
		C22.392,62,22.453,62.407,22.453,62.887L22.453,62.887z"/>
	<polygon fill-rule="evenodd" clip-rule="evenodd" fill="#555555" points="12.465,61.129 9.867,61.129 9.867,65.532 9.011,65.532 
		9.011,60.36 12.465,60.36 12.465,61.129 	"/>
	<polygon fill-rule="evenodd" clip-rule="evenodd" fill="#555555" points="27.631,60.36 28.455,60.36 30.013,64.417 30.043,64.417 
		31.643,60.36 32.467,60.36 29.356,68.063 28.538,68.063 29.614,65.43 27.631,60.36 	"/>
	<polygon fill-rule="evenodd" clip-rule="evenodd" fill="#555555" points="38.79,61.129 38.79,65.532 37.966,65.532 37.966,60.36 
		42.043,60.36 42.043,65.532 41.219,65.532 41.219,61.129 38.79,61.129 	"/>
	<polygon fill-rule="evenodd" clip-rule="evenodd" fill="#555555" points="48.958,61.129 48.958,65.532 48.135,65.532 48.135,60.36 
		52.212,60.36 52.212,65.532 51.388,65.532 51.388,61.129 48.958,61.129 	"/>
	<path fill-rule="evenodd" clip-rule="evenodd" fill="#555555" d="M61.251,64.962h-0.02c-0.069,0.085-0.153,0.175-0.254,0.26
		c-0.104,0.082-0.222,0.159-0.356,0.224c-0.136,0.069-0.283,0.122-0.441,0.163c-0.159,0.037-0.327,0.057-0.508,0.057
		c-0.244,0-0.468-0.036-0.669-0.109c-0.206-0.073-0.38-0.184-0.527-0.33c-0.146-0.138-0.261-0.317-0.342-0.521
		c-0.082-0.207-0.122-0.439-0.122-0.704c0-0.256,0.044-0.488,0.136-0.688c0.089-0.203,0.216-0.378,0.378-0.517
		c0.161-0.146,0.358-0.252,0.586-0.33c0.226-0.077,0.48-0.113,0.755-0.113c0.262,0.004,0.504,0.028,0.728,0.073
		c0.222,0.04,0.419,0.098,0.592,0.162h0.022v-0.357c0-0.143-0.01-0.269-0.029-0.379c-0.014-0.109-0.046-0.203-0.087-0.289
		c-0.091-0.175-0.238-0.317-0.441-0.435c-0.199-0.11-0.472-0.167-0.814-0.167c-0.252,0-0.494,0.024-0.718,0.069
		c-0.224,0.049-0.446,0.113-0.669,0.195v-0.7c0.083-0.045,0.185-0.081,0.299-0.122c0.114-0.037,0.236-0.069,0.362-0.098
		c0.126-0.024,0.26-0.049,0.405-0.062c0.141-0.012,0.281-0.02,0.423-0.02c0.506,0,0.921,0.089,1.245,0.276
		c0.323,0.183,0.557,0.432,0.7,0.736c0.053,0.114,0.092,0.24,0.114,0.383c0.022,0.138,0.033,0.293,0.033,0.46v3.454h-0.689
		L61.251,64.962L61.251,64.962z M61.208,63.261c-0.153-0.045-0.332-0.086-0.54-0.126c-0.207-0.041-0.437-0.062-0.688-0.065
		c-0.35,0-0.623,0.073-0.82,0.228c-0.195,0.155-0.295,0.387-0.295,0.704c0,0.163,0.024,0.302,0.073,0.424s0.118,0.22,0.206,0.297
		c0.083,0.077,0.187,0.138,0.303,0.175c0.12,0.036,0.247,0.057,0.379,0.057c0.177,0,0.342-0.028,0.494-0.081
		c0.148-0.053,0.285-0.114,0.403-0.188s0.218-0.146,0.301-0.22s0.145-0.126,0.183-0.167V63.261L61.208,63.261z"/>
	<polygon fill-rule="evenodd" clip-rule="evenodd" fill="#555555" points="81.958,62.838 84.001,60.193 84.978,60.193 
		82.861,62.882 85.104,65.592 84.119,65.592 81.958,62.952 81.95,62.952 81.95,65.592 81.186,65.592 81.186,60.193 81.95,60.193 
		81.95,62.838 81.958,62.838 	"/>
	<path fill-rule="evenodd" clip-rule="evenodd" fill="#555555" d="M94.837,60.193v5.399h-0.77V60.95h-1.078
		c-0.094,0.745-0.207,1.376-0.333,1.9c-0.131,0.525-0.261,0.96-0.403,1.311c-0.139,0.35-0.276,0.631-0.411,0.834
		c-0.138,0.207-0.272,0.362-0.415,0.464c-0.138,0.098-0.276,0.163-0.411,0.195c-0.138,0.028-0.269,0.045-0.386,0.045
		c-0.082,0-0.151-0.004-0.204-0.017v-0.915c0.041,0.008,0.082,0.012,0.118,0.012c0.118,0.004,0.232-0.012,0.338-0.049
		c0.102-0.041,0.199-0.105,0.289-0.203c0.089-0.098,0.183-0.248,0.276-0.443c0.094-0.204,0.184-0.473,0.272-0.814
		c0.086-0.338,0.171-0.757,0.257-1.261c0.085-0.501,0.167-1.107,0.248-1.815H94.837L94.837,60.193z"/>
	<path fill-rule="evenodd" clip-rule="evenodd" fill="#555555" d="M101.099,65.592h-0.667v-5.399h0.765v2.963
		c0,0.528-0.008,0.919-0.024,1.167h0.021c0.094-0.171,0.204-0.37,0.338-0.59c0.13-0.22,0.272-0.447,0.428-0.688l1.851-2.853h0.668
		v5.399h-0.766V62.63c0-0.415,0.009-0.806,0.024-1.168h-0.02c-0.094,0.171-0.208,0.37-0.338,0.59
		c-0.135,0.22-0.277,0.448-0.432,0.688L101.099,65.592L101.099,65.592z"/>
	<polygon fill-rule="evenodd" clip-rule="evenodd" fill="#555555" points="113.591,65.592 113.591,63.171 111.23,63.171 
		111.23,65.592 110.462,65.592 110.462,60.193 111.23,60.193 111.23,62.415 113.591,62.415 113.591,60.193 114.356,60.193 
		114.356,65.592 113.591,65.592 	"/>
	<path fill-rule="evenodd" clip-rule="evenodd" fill="#555555" d="M121.225,65.592h-0.667v-5.399h0.765v2.963
		c0,0.528-0.008,0.919-0.024,1.167h0.021c0.094-0.171,0.203-0.37,0.333-0.59c0.135-0.22,0.273-0.447,0.432-0.688l1.852-2.853h0.667
		v5.399h-0.765V62.63c0-0.415,0.008-0.806,0.024-1.168h-0.021c-0.094,0.171-0.207,0.37-0.338,0.59
		c-0.134,0.22-0.276,0.448-0.431,0.688L121.225,65.592L121.225,65.592z"/>
	<polygon fill-rule="evenodd" clip-rule="evenodd" fill="#555555" points="131.242,62.838 133.285,60.193 134.258,60.193 
		132.146,62.882 134.388,65.592 133.399,65.592 131.242,62.952 131.234,62.952 131.234,65.592 130.465,65.592 130.465,60.193 
		131.234,60.193 131.234,62.838 131.242,62.838 	"/>
</g>
</svg>
