<svg width="27" height="23" fill="none" xmlns="http://www.w3.org/2000/svg"><path d="M13.5 8.8a4.05 4.05 0 1 0 0 8.1 4.05 4.05 0 0 0 0-8.1zm10.8-4.05h-3.24c-.445 0-.926-.346-1.066-.768l-.838-2.514C19.015 1.046 18.536.7 18.09.7H8.91c-.446 0-.926.346-1.066.768l-.838 2.514c-.141.422-.62.768-1.066.768H2.7A2.708 2.708 0 0 0 0 7.45V19.6c0 1.485 1.215 2.7 2.7 2.7h21.6c1.485 0 2.7-1.215 2.7-2.7V7.45c0-1.485-1.215-2.7-2.7-2.7zM13.5 19.6a6.75 6.75 0 1 1 0-13.5 6.75 6.75 0 0 1 0 13.5zm9.855-10.262a.945.945 0 1 1 0-1.89.945.945 0 0 1 0 1.89z" fill="#fff"/></svg>