<svg xmlns="http://www.w3.org/2000/svg" width="20" height="16" viewBox="0 0 20 16"><g><g><path fill="#121a28" d="M20 1.894a8.653 8.653 0 0 1-2.362.638A4.026 4.026 0 0 0 19.44.3a8.272 8.272 0 0 1-2.6.978A4.139 4.139 0 0 0 13.846 0C11.576 0 9.75 1.814 9.75 4.038c0 .32.027.628.095.92A11.666 11.666 0 0 1 1.392.737a4.017 4.017 0 0 0-.56 2.04c0 1.399.73 2.638 1.82 3.356A4.098 4.098 0 0 1 .8 5.634v.045C.8 7.64 2.221 9.27 4.085 9.646c-.334.09-.698.132-1.075.132a3.68 3.68 0 0 1-.776-.068 4.132 4.132 0 0 0 3.831 2.812 8.32 8.32 0 0 1-5.084 1.722A7.8 7.8 0 0 1 0 14.188 11.674 11.674 0 0 0 6.29 16c7.545 0 11.67-6.154 11.67-11.488 0-.178-.006-.35-.015-.522A8.111 8.111 0 0 0 20 1.894z"/></g></g></svg>