<svg width="28" height="28" fill="none" xmlns="http://www.w3.org/2000/svg"><g clip-path="url(#clip0)" fill="#000"><path d="M27.198 13.677a.799.799 0 0 0-.802.803v7.297a3.6 3.6 0 0 1-3.596 3.595H5.2a3.6 3.6 0 0 1-3.596-3.595V14.36a.799.799 0 0 0-.802-.802.799.799 0 0 0-.802.802v7.416c0 2.87 2.335 5.2 5.2 5.2h17.6c2.87 0 5.2-2.336 5.2-5.2V14.48a.803.803 0 0 0-.802-.803z"/><path d="M13.435 20.605a.807.807 0 0 0 .565.238c.202 0 .41-.077.565-.238l5.098-5.098a.8.8 0 0 0 0-1.135.8.8 0 0 0-1.135 0l-3.726 3.732V1.828A.799.799 0 0 0 14 1.025a.799.799 0 0 0-.802.803v16.276l-3.732-3.732a.8.8 0 0 0-1.135 0 .8.8 0 0 0 0 1.135l5.104 5.098z"/></g><defs><clipPath id="clip0"><path fill="#fff" d="M0 0h28v28H0z"/></clipPath></defs></svg>