<svg width="25" height="25" fill="none" xmlns="http://www.w3.org/2000/svg"><path d="M24.458 11.378c.492-.48.666-1.184.453-1.838a1.782 1.782 0 0 0-1.447-1.22l-6.054-.88a.79.79 0 0 1-.595-.433l-2.707-5.484a1.78 1.78 0 0 0-1.608-1c-.686 0-1.303.383-1.607 1L8.186 7.008a.791.791 0 0 1-.596.433l-6.053.88A1.782 1.782 0 0 0 .089 9.54a1.782 1.782 0 0 0 .454 1.838l4.38 4.269a.793.793 0 0 1 .228.7l-1.034 6.029c-.091.53.048 1.046.391 1.453a1.812 1.812 0 0 0 2.21.436l5.414-2.846a.81.81 0 0 1 .737 0l5.414 2.846c.263.14.544.21.834.21.529 0 1.03-.236 1.375-.646.344-.407.483-.924.392-1.453l-1.034-6.029a.792.792 0 0 1 .228-.7l4.38-4.27z" fill="#0C0C0C"/></svg>