<svg xmlns="http://www.w3.org/2000/svg" width="20" height="20"><path fill="#ffc448" d="M10 5a5 5 0 0 1 3 9v4a2 2 0 0 1-2 2H9a2 2 0 0 1-2-2v-4a5 5 0 0 1 3-9zM9 3V1a1 1 0 0 1 2 0v2a1 1 0 0 1-2 0zm11 7a1 1 0 0 1-1 1h-2a1 1 0 0 1 0-2h2a1 1 0 0 1 1 1zM4 10a1 1 0 0 1-1 1H1a1 1 0 0 1 0-2h2a1 1 0 0 1 1 1zm1.66-5.58a1 1 0 0 1 .06 1.41 1 1 0 0 1-.72.31 1 1 0 0 1-.73-.28L2.83 4.47A1.012 1.012 0 1 1 4.22 3zm11.53-1.37a1 1 0 0 1 0 1.42l-1.44 1.39a1 1 0 0 1-.69.28 1 1 0 0 1-.72-.31 1 1 0 0 1 0-1.41l1.44-1.37a1 1 0 0 1 1.41 0z"/></svg>