<svg xmlns="http://www.w3.org/2000/svg" width="20" height="20"><path fill="#ffc448" d="M14.745 5.801a1.5 1.5 0 1 1-1.54-2.575 1.5 1.5 0 0 1 1.54 2.575zM7.61 4.075a1.5 1.5 0 1 1 2.772-1.148A1.5 1.5 0 0 1 7.61 4.075zM4.805 8.03a1.5 1.5 0 1 1 .34-2.98 1.5 1.5 0 0 1-.34 2.98zm.038 4.712a1.51 1.51 0 0 1-1.673.013 1.498 1.498 0 0 1 .525-2.723 1.507 1.507 0 0 1 1.784 1.754 1.49 1.49 0 0 1-.636.956zm12.692-9.66a10.61 10.61 0 0 0-7.63-3.08C4.382-.013-.106 4.453-.12 9.976-.134 15.5 4.332 19.987 9.855 20.001a2.58 2.58 0 0 0 2.53-1.89 2.52 2.52 0 0 0-.57-2.28.5.5 0 0 1 .37-.83h1.65a6.15 6.15 0 0 0 6.16-5.67 8.48 8.48 0 0 0-2.46-6.25z"/></svg>